<svg height="64" viewBox="0 0 119 64" width="119" xmlns="http://www.w3.org/2000/svg" xmlns:xlink="http://www.w3.org/1999/xlink">
<title id="logotitle">Clinton Health Access Initiative</title><desc id="logodesc">CHAI logo</desc>
<defs>
<path d="M.518.562H20.74v11.062H.518z" id="a"></path>
<path d="M0 .179h16.545v8.548H0z" id="c"></path>
</defs>
<g fill="none" fill-rule="evenodd">
<g transform="translate(98.251 34.937)">
<mask fill="#fff" id="b">
<use href="#a"></use>
</mask>
<path d="M15.523 6.66c.44-1.12.684-2.266.91-3.367-1.99.111-3.872.21-5.88.205A436.129 436.129 0 0 0 4.771.562c.338 1.044.715 2.176.888 3.292-1.65.274-3.438.44-5.142.6C2.58 5.368 4.707 6.295 6.9 7.227c.786 1.427 1.345 2.834 1.98 4.396 1.532-.727 2.998-1.483 4.317-2.308 2.513.612 4.97 1.131 7.543 1.649a133.64 133.64 0 0 0-5.217-4.305" fill="#1B4075" mask="url(#b)"></path>
</g>
<path d="M107.131 46.56c-2.426-.259-4.783-.56-7.122-.932a262.47 262.47 0 0 0-4.835-4.037c-.268 1.11-.559 2.307-1.076 3.447-2.067-.047-4.174-.21-6.21-.392a347.785 347.785 0 0 0 5.473 3.97c-.023 1.558-.254 3.088-.548 4.729-2.556-.718-5.091-1.568-7.424-2.361-.952-1.694-1.9-3.317-2.841-4.874-.939 1.066-2.051 2.082-3.272 3.124-2.22-.478-4.345-.987-6.41-1.586a197.035 197.035 0 0 0 3.44 4.85 38.653 38.653 0 0 1-3.429 4.352c-2.258-1.197-4.384-2.488-6.343-3.741.002-1.76-.028-3.452-.09-5.083-1.585.825-3.3 1.56-5.129 2.304-1.953-.88-3.785-1.713-5.49-2.648.188 1.629.42 3.325.696 5.089-1.756 1.103-3.672 2.247-5.726 3.282-1.518-1.524-2.854-3.084-4.042-4.57.95-1.584 1.831-3.117 2.649-4.602-1.943.467-3.949.813-6.052 1.159-1.353-1.117-2.584-2.203-3.663-3.312a121.92 121.92 0 0 0-2.014 4.612c-2.184.685-4.446 1.282-6.812 1.838 1.854.998 3.852 1.92 5.943 2.828a73.51 73.51 0 0 0 .542 5.917 114.872 114.872 0 0 0 5.789-4.354c2.547.247 5.1.437 7.66.485h-.001c2.455.646 5.002 1.164 7.596 1.63a104.787 104.787 0 0 0 3.96 5.9 82.593 82.593 0 0 0 3.068-5.636c2.548-.318 5.062-.606 7.46-1.098 2.623.156 5.203.12 7.81.095a188.262 188.262 0 0 0 6.698 4.883c-.003-2.047-.178-4.124-.379-6.03 2.09-.721 3.987-1.593 5.808-2.453h-.001c2.25-.37 4.406-.838 6.502-1.369 2.544 1.126 5.136 2.183 7.89 3.267a82.695 82.695 0 0 0-3.397-5.452c1.275-1.033 2.327-2.148 3.322-3.23M34.297 42.944c-1.935.054-3.94.086-5.908 0-.65-1.16-1.13-2.332-1.544-3.439a192.194 192.194 0 0 0-3.988 3.648c-2.164.23-4.34.375-6.573.473.34-1.458.698-2.814 1.205-4.147 1.93-.783 3.8-1.56 5.62-2.34a68.247 68.247 0 0 1-4.966-.862c.056-1.1.141-2.137.373-3.16a283.483 283.483 0 0 0-5.004 2.545c-1.828-.127-3.693-.289-5.474-.532.309 1.096.765 2.193 1.314 3.304a99.34 99.34 0 0 0-4.2 3.851c2.301-.348 4.55-.73 6.743-1.143a55.077 55.077 0 0 0 4.39 2.484 41.78 41.78 0 0 0 3.591 3.354c-.864 1.628-1.629 3.29-2.387 5.075 2.402-.846 4.724-1.73 6.972-2.663 2.05.68 4.202 1.262 6.398 1.786-.557-1.596-.937-3.189-1.24-4.667 1.62-1.2 3.19-2.406 4.678-3.567" fill="#1B4075"></path>
<g transform="translate(0 26.403)">
<mask fill="#fff" id="d">
<use href="#c"></use>
</mask>
<path d="M8.04 8.727c.878-1.152 1.879-2.27 2.836-3.3 1.922-.402 3.81-.814 5.67-1.236-1.299-.406-2.474-.88-3.645-1.38A25.317 25.317 0 0 1 14.664.18c-1.705.485-3.431.991-5.185 1.52C8.04 1.372 6.735.983 5.399.571a18.738 18.738 0 0 0-.47 2.915A153.644 153.644 0 0 0-.001 6.11c1.863.034 3.827.003 5.723-.05.665.908 1.42 1.806 2.318 2.668" fill="#1B4075" mask="url(#d)"></path>
</g>
<path d="M7.056 19.837c-.598.769-1.186 1.568-1.678 2.39a144.422 144.422 0 0 0-4.97 1.608c1.439.242 2.876.456 4.406.636.1.836.315 1.67.587 2.504a70.408 70.408 0 0 1 3.747-2.42 322.53 322.53 0 0 0 5.104-.36c-.804-.512-1.612-1.043-2.278-1.613.83-.712 1.764-1.396 2.652-2.035-1.623.223-3.241.457-4.876.699a29.744 29.744 0 0 1-2.694-1.409c1.4-.59 2.7-1.13 4.078-1.634 1.418.094 2.843.175 4.28.25-.413-.531-.814-1.075-1.1-1.634a54.532 54.532 0 0 1 3.124-1.477c-1.425.026-2.872.055-4.304.097a13.512 13.512 0 0 1-1.512-1.474c1.378-.363 2.7-.7 4.047-1 1.117.222 2.25.433 3.404.643a5.955 5.955 0 0 1-.147-1.524 71.819 71.819 0 0 1 3.314-.984c-1.201-.117-2.412-.23-3.628-.33-.227-.465-.439-.944-.54-1.425-.99.434-1.936.9-2.87 1.387-1.335.076-2.74.168-4.11.288.648.397 1.335.781 2.064 1.15a21.207 21.207 0 0 0-1.534 1.795c-.833.598-1.666 1.218-2.425 1.865-1.527.255-3.07.536-4.616.846 1.02.348 2.04.679 3.15.99a13.607 13.607 0 0 0-.675 2.171M21.907 8.847c.829.297 1.683.594 2.558.886.137-.456.367-.904.621-1.364a82.82 82.82 0 0 1 3.324-.567c-.976-.21-1.955-.421-2.94-.619.01-.44.102-.875.228-1.314a98.098 98.098 0 0 1 3.54-.108c.57.336 1.16.675 1.784 1.02.369-.389.763-.789 1.233-1.17 1.082-.1 2.17-.166 3.22-.221-.762-.283-1.532-.558-2.296-.822.24-.387.52-.784.866-1.166 1.099.05 2.164.113 3.208.201.34.355.7.721 1.082 1.084a23.853 23.853 0 0 1 1.709-.967c1.05.012 2.06.028 3.062.075-.55-.324-1.111-.64-1.678-.949.42-.345.886-.683 1.406-1.007.979.128 1.944.293 2.854.449.127.367.274.73.437 1.104.659-.266 1.37-.507 2.113-.751.981.092 1.934.208 2.858.33-.35-.353-.707-.695-1.075-1.036.582-.29 1.214-.56 1.883-.833-1.079-.009-2.157-.001-3.248.018a47.15 47.15 0 0 0-2.04-.775c-.302.324-.56.665-.79 1.003a70.264 70.264 0 0 0-2.996.49h.002c-1.087.081-2.164.184-3.25.3a81.127 81.127 0 0 0-2.527-.612c-.107.366-.18.732-.22 1.1-.95.246-1.885.5-2.791.776-1.07.187-2.147.39-3.21.616a96.834 96.834 0 0 0-3.024-.398c.098.39.225.771.417 1.166a45.562 45.562 0 0 0-2.529 1.082 85.446 85.446 0 0 0-3.103.97 144.61 144.61 0 0 0-3.558-.108c.334.4.74.803 1.168 1.19-.751.462-1.475.932-2.131 1.425 1.287-.195 2.584-.357 3.833-.498" fill="#1B4075"></path>
<path d="M54.403 1.772a11.95 11.95 0 0 0-.188 1.083c.789-.184 1.615-.374 2.472-.53.91.173 1.784.361 2.625.568-.146-.37-.311-.734-.487-1.089.733-.226 1.51-.443 2.324-.64-1.063-.111-2.136-.176-3.218-.259A28.62 28.62 0 0 0 56.365 0c-.469.286-.907.584-1.315.89a99.7 99.7 0 0 0-3.147.213c.867.213 1.703.437 2.5.67" fill="#1B4075"></path>
<path d="M63.271 2.022c-.277.332-.541.679-.796 1.026a70.996 70.996 0 0 1 2.786-.297c.82.242 1.594.52 2.341.78.06-.373.103-.735.13-1.1.886-.16 1.797-.285 2.76-.418-1.041-.187-2.09-.37-3.16-.528-.321-.345-.679-.69-1.075-1.018-.642.242-1.251.49-1.835.752a107.99 107.99 0 0 0-3.274-.056c.748.272 1.457.557 2.123.86" fill="#1B4075"></path>
<path d="M70.757 3.978a95.86 95.86 0 0 1 3.076-.031c.705.33 1.38.654 2 .996.286-.36.552-.721.797-1.08a82.513 82.513 0 0 1 3.197-.158c-.984-.293-2.02-.554-3.046-.82a8.724 8.724 0 0 0-.53-1.108c-.814.179-1.624.381-2.39.586-1.124-.144-2.261-.246-3.37-.351.613.338 1.174.688 1.7 1.031a51.64 51.64 0 0 0-1.434.935" fill="#1B4075"></path>
<path d="M81.033 4.899c-.71.256-1.407.524-2.103.794 1.093.067 2.206.154 3.344.268.58.39 1.09.798 1.575 1.198a37.264 37.264 0 0 0 1.535-1.009c1.185.031 2.383.09 3.647.157-.953-.382-1.89-.767-2.89-1.124.077-.391.119-.784.1-1.17-1.02.105-2.011.227-2.97.355-1.16-.23-2.288-.467-3.444-.663.458.391.86.79 1.206 1.194M36.27 20.27c.142-.038.296-.09.451-.117.182-.243.53-1.093.62-1.956-.066-.116-.27-.168-.387-.052-.361.836-1.07 1.918-2.696 1.918-1.663 0-3.377-1.34-3.377-4.083 0-2.64 1.648-3.8 3.287-3.8 1.702 0 2.282 1.07 2.501 1.881.091.09.322.077.414-.025-.13-.953-.155-1.714-.18-2.01-.117-.025-.206-.038-.362-.077a9.958 9.958 0 0 0-2.231-.283c-1.303 0-2.604.374-3.56 1.095-.953.734-1.623 1.905-1.623 3.412 0 1.688.786 2.86 1.83 3.542.928.607 2.024.864 3.3.864.839 0 1.729-.219 2.013-.308M39.123 19.974l-.387.063c-.117.066-.078.323.025.374a40.391 40.391 0 0 1 1.844-.038h1.342c1.444 0 2.553.012 3.094.038.155-.348.439-1.326.542-1.867-.063-.103-.27-.142-.399-.077-.595 1.326-.801 1.391-2.231 1.391-1.032 0-1.238-.104-1.392-.285-.195-.218-.22-.683-.22-1.325v-4.522c0-1.339.115-1.364.722-1.468l.284-.051c.102-.066.09-.322-.027-.374-.567.026-1.148.04-1.715.04-.593 0-1.174-.014-1.817-.04-.116.052-.116.308-.027.374l.362.051c.606.09.722.13.722 1.468v4.792c0 1.34-.116 1.352-.722 1.456M47.12 19.999l-.283.04c-.092.089-.078.321.025.372a39.538 39.538 0 0 1 3.457 0c.102-.051.114-.283.025-.373l-.284-.04c-.606-.076-.722-.114-.722-1.48v-4.791c0-1.366.116-1.404.722-1.48l.284-.04c.09-.091.077-.323-.025-.374a38.399 38.399 0 0 1-3.457 0c-.103.051-.117.283-.025.374l.283.04c.606.076.722.114.722 1.48v4.791c0 1.366-.116 1.404-.722 1.48M59.564 17.925c-.128-.077-1.328-1.443-1.869-2.035l-1.29-1.391c-.452-.49-1.856-2.113-2.076-2.666a10.77 10.77 0 0 1-.89.039c-.322 0-1.031.013-1.521-.04-.128.04-.142.297-.051.374l.193.04c.18.039.542.14.683.257.439.373.425.58.425 1.584v3.052c0 1.018 0 2.139-.168 2.539-.089.206-.322.245-.566.296l-.285.064c-.102.09-.076.308.027.373.452-.025.8-.039 1.342-.039.489 0 .992.014 1.469.04.13-.04.14-.285.026-.374l-.285-.04c-.322-.037-.54-.128-.657-.32-.218-.389-.231-1.572-.231-2.539v-2.51c0-.683 0-.825.039-.825.22.193.643.669 1.47 1.623l3.016 3.439c.929 1.057 1.303 1.494 1.51 1.764a.485.485 0 0 0 .438-.18c-.038-.297-.038-1.881-.038-2.267v-3.078c0-1.018 0-2.138.18-2.538.09-.206.309-.245.554-.296l.296-.065c.105-.089.08-.31-.025-.373-.464.026-.799.039-1.354.039a28.1 28.1 0 0 1-1.484-.04c-.128.04-.14.285-.026.374l.298.04c.324.039.53.129.645.321.232.387.244 1.572.244 2.538v2.511c0 .207 0 .27-.04.31M70.968 11.485c-.053 0-.103.026-.156.051-.152.297-.348.336-.979.336h-5.262c-.876 0-1.057-.012-1.123-.336-.023-.039-.077-.05-.128-.05-.063 0-.116.011-.142.05-.09.452-.282 1.25-.503 1.945.053.13.324.167.414.09.475-1.043.825-1.184 2.012-1.184h.722c.336 0 .348.026.348.567v5.564c0 1.365-.117 1.378-.721 1.456l-.543.063c-.09.066-.078.323.024.374a64.147 64.147 0 0 1 2.002-.038c.566 0 1.145.013 1.894.038.103-.051.118-.283.025-.374l-.464-.051c-.606-.063-.72-.103-.72-1.468v-5.564c0-.541.011-.567.347-.567h.734c1.38 0 1.626.244 1.794 1.25.117.089.336.063.4-.04-.04-.412.065-1.52.193-2.047-.025-.04-.09-.065-.168-.065M76.581 12.18c2.05 0 2.926 2.255 2.926 4.2 0 2.589-1.187 3.683-2.657 3.683-2.207 0-2.966-2.421-2.966-4.199 0-2.743 1.406-3.684 2.697-3.684m.14 8.4c2.605 0 4.54-1.895 4.54-4.432 0-2.344-1.536-4.483-4.513-4.483-2.709 0-4.617 1.945-4.617 4.574 0 2.292 1.677 4.34 4.59 4.34M89.647 12.245c.32.04.528.13.644.322.233.387.244 1.572.244 2.538v2.51c0 .207 0 .27-.039.31-.127-.077-1.326-1.443-1.87-2.035l-1.288-1.391c-.452-.49-1.857-2.113-2.077-2.666-.307.026-.618.039-.889.039-.321 0-1.034.012-1.523-.04-.127.04-.14.296-.051.374l.194.04c.18.038.54.14.683.257.44.373.426.58.426 1.584v3.052c0 1.018 0 2.138-.167 2.538-.092.206-.323.245-.57.296l-.281.065c-.106.09-.08.308.024.373.453-.025.802-.039 1.342-.039.49 0 .992.014 1.472.04.128-.04.14-.285.025-.374l-.286-.04c-.321-.037-.542-.128-.656-.32-.22-.389-.232-1.572-.232-2.539v-2.511c0-.683 0-.825.038-.825.22.193.644.67 1.47 1.624l3.02 3.438c.927 1.057 1.3 1.495 1.506 1.764a.487.487 0 0 0 .44-.18c-.039-.296-.039-1.88-.039-2.266v-3.078c0-1.018 0-2.139.179-2.538.09-.206.31-.245.557-.296l.296-.065c.102-.09.077-.31-.027-.373-.465.026-.8.039-1.354.039-.502 0-.98-.013-1.482-.04-.13.04-.142.285-.027.374l.298.04zM29.831 30l-.164.025c-.05.052-.034.19.018.215a21.149 21.149 0 0 1 2.08 0c.053-.025.068-.18.017-.215L31.575 30c-.497-.06-.514-.171-.514-1.073v-3.092c0-.902.017-1.03.514-1.082l.182-.017c.051-.034.035-.19-.017-.216a20.21 20.21 0 0 1-2.055 0c-.052.026-.069.182-.018.216l.164.017c.507.051.525.18.525 1.082v.987c0 .267-.018.275-.43.275h-2.458c-.414 0-.431-.008-.431-.275v-.987c0-.902.017-1.03.517-1.082l.163-.017c.05-.034.032-.19-.019-.216-.369.018-.661.026-.995.026-.372 0-.663-.016-1.085-.026-.051.026-.068.182-.016.216l.223.017c.447.035.506.18.506 1.082v3.092c0 .902-.016.987-.498 1.073l-.146.025c-.052.052-.034.19.016.215.337-.008.628-.025 1-.025.334 0 .626.007 1.092.025.05-.025.068-.18.016-.215l-.25-.025c-.48-.052-.524-.171-.524-1.073v-1.212c0-.258.017-.275.43-.275h2.46c.411 0 .429.017.429.275v1.212c0 .902 0 .987-.525 1.073M33.978 30.215h.774c.766 0 1.53.007 2.304.024.111-.231.327-.893.387-1.193-.034-.079-.154-.102-.215-.06-.224.446-.456.747-.61.833-.189.096-.438.129-1.1.129-.758 0-.938-.094-1.043-.198-.136-.146-.16-.436-.16-.892v-1.213c0-.222.024-.23.283-.23h.498c.335 0 .542.008.661.043.173.042.233.17.267.326l.077.334c.045.053.19.053.224-.007 0-.19-.034-.516-.034-.826 0-.327.034-.662.034-.867-.034-.06-.18-.06-.224-.008l-.068.353c-.043.215-.103.266-.207.3-.103.034-.368.05-.73.05h-.498c-.26 0-.284 0-.284-.239v-1.717c0-.327 0-.344.258-.344h.618c.38 0 .654.008.834.052.447.11.524.412.653.815.043.053.182.036.217-.017-.035-.378-.087-.996-.138-1.143-.104.026-.61.026-1.161.026h-1.617c-.352 0-.644-.01-1.014-.026-.05.026-.068.182-.018.216l.14.017c.506.06.523.19.523 1.082v3.092c0 .902-.043 1.03-.534 1.073l-.283.025c-.052.052-.035.19.017.214.507-.017.8-.024 1.169-.024M39.672 27.457l.54-1.493c.097-.258.182-.463.208-.506h.017c.05.102.128.334.198.539l.465 1.4c.076.232.06.268-.19.268h-1.058c-.24 0-.25-.01-.18-.208m-.249 2.783c.076-.034.076-.172.017-.215L39.156 30c-.207-.019-.25-.07-.25-.171 0-.096.061-.327.19-.714l.3-.901c.061-.182.112-.206.327-.206h1.298c.258 0 .292.024.354.215l.378 1.166c.068.207.112.36.112.456 0 .085-.12.136-.302.155l-.25.025c-.059.043-.051.18.018.215.25-.008.576-.025.99-.025.386 0 .687.007 1.04.025.04-.034.06-.172 0-.215L43.128 30c-.37-.044-.482-.171-.732-.911l-1.177-3.45c-.13-.38-.267-.774-.379-1.153-.017-.057-.076-.076-.13-.076-.094.11-.24.265-.447.326.027.137-.025.3-.145.61l-.877 2.319c-.36.961-.601 1.518-.758 1.913-.12.31-.309.403-.514.422l-.284.025c-.052.043-.034.18.018.215.232-.008.541-.025.825-.025.405.007.67.007.894.025M47.971 30.24c.121-.232.36-1.108.36-1.202 0-.06-.162-.094-.213-.052-.173.437-.397.747-.568.85-.138.079-.318.112-1.05.112-.678 0-.842-.102-.936-.198-.155-.162-.181-.386-.181-.927v-2.988c0-.902.018-1.04.525-1.082l.206-.017c.052-.034.035-.19-.018-.216-.43.017-.722.026-1.057.026-.343 0-.636-.01-1.118-.026-.052.026-.068.182-.017.216l.216.017c.542.043.56.18.56 1.082v3.092c0 .902-.018 1.021-.516 1.073l-.26.025c-.051.052-.035.19.017.214.482-.017.758-.024 1.118-.024h.792c.885 0 1.702.007 2.14.024M49.743 30l-.31.025c-.067.044-.05.19 0 .215.551-.018.852-.025 1.196-.025.345 0 .637.007 1.128.025.05-.025.067-.18.016-.215L51.497 30c-.498-.043-.515-.171-.515-1.073v-3.822c0-.284-.008-.292.25-.292h.61c.472 0 .798.069.997.216.13.092.189.412.216.624.042.053.189.053.224-.015-.029-.259.031-.953.127-1.306-.017-.034-.111-.043-.156-.025-.127.223-.205.24-.669.24H49.1c-.396 0-.68.01-.731-.266-.026-.026-.138-.017-.164 0a8.83 8.83 0 0 1-.327 1.28c.035.069.155.11.224.06.094-.215.18-.404.387-.592.215-.199.687-.216 1.058-.216h.471c.259 0 .259.008.259.275v3.839c0 .902-.043 1.03-.534 1.073M60.374 30.24c.05-.025.066-.18.014-.215L60.182 30c-.496-.06-.514-.171-.514-1.073v-3.092c0-.902.018-1.03.514-1.082l.182-.017c.051-.034.034-.19-.017-.216a20.247 20.247 0 0 1-2.056 0c-.05.026-.068.182-.017.216l.165.017c.507.051.523.18.523 1.082v.987c0 .267-.016.275-.43.275h-2.458c-.412 0-.43-.008-.43-.275v-.987c0-.902.018-1.03.516-1.082l.164-.017c.051-.034.032-.19-.018-.216-.37.019-.662.026-.997.026-.37 0-.662-.016-1.083-.026-.053.026-.07.182-.017.216l.223.017c.446.035.507.18.507 1.082v3.092c0 .902-.017.988-.498 1.073l-.148.025c-.051.052-.033.19.018.215.336-.008.628-.025.998-.025.335 0 .627.007 1.092.025.051-.025.068-.18.017-.215L56.169 30c-.482-.052-.525-.171-.525-1.073v-1.212c0-.257.018-.275.43-.275h2.458c.414 0 .43.018.43.275v1.212c0 .902 0 .988-.523 1.073l-.165.025c-.05.052-.034.19.017.215a21.226 21.226 0 0 1 2.083 0M66.644 27.664h-1.059c-.238 0-.247-.009-.178-.207l.54-1.493c.096-.258.181-.463.207-.506h.017c.052.102.13.334.198.539l.465 1.4c.075.232.06.267-.19.267M67.297 30l-.25.024c-.06.044-.051.182.017.216.252-.008.577-.025.991-.025.385 0 .687.007 1.04.025.042-.034.06-.172 0-.216L68.863 30c-.37-.044-.483-.171-.73-.911l-1.178-3.45c-.129-.38-.267-.774-.38-1.153-.017-.058-.077-.076-.127-.076-.095.11-.244.265-.449.326.026.137-.025.3-.146.61l-.877 2.318c-.359.962-.6 1.52-.755 1.914-.121.31-.31.403-.517.422l-.283.024c-.051.044-.035.182.017.216.232-.008.542-.025.825-.025.406.007.672.007.893.025.079-.034.079-.172.02-.216L64.891 30c-.207-.019-.249-.07-.249-.171 0-.096.059-.327.19-.714l.298-.901c.061-.182.114-.206.328-.206h1.299c.255 0 .29.024.353.215l.376 1.166c.069.207.112.36.112.456 0 .085-.12.136-.3.155M74.608 30.069c.13-.164.352-.73.413-1.178-.036-.06-.165-.076-.223-.034-.2.506-.69 1.23-1.797 1.23-1.41 0-2.554-.998-2.554-2.802 0-1.778 1.118-2.61 2.434-2.61 1.246 0 1.634.671 1.762 1.255.058.05.19.042.232-.018a17.966 17.966 0 0 1-.122-1.262c-.078.008-.136-.008-.238-.034a6.638 6.638 0 0 0-1.524-.207c-.893 0-1.694.241-2.321.73-.653.507-1.084 1.323-1.084 2.276 0 1.108.534 1.889 1.22 2.361.63.421 1.368.575 2.142.575.551 0 1.17-.129 1.36-.197.093-.035.197-.068.3-.085M80.938 30.069c.13-.164.354-.73.413-1.178-.033-.06-.164-.076-.222-.034-.199.506-.688 1.23-1.8 1.23-1.41 0-2.552-.998-2.552-2.802 0-1.778 1.117-2.61 2.434-2.61 1.247 0 1.634.671 1.763 1.255.058.05.188.042.232-.018a17.966 17.966 0 0 1-.123-1.262c-.076.008-.136-.008-.238-.034a6.615 6.615 0 0 0-1.524-.207c-.893 0-1.692.241-2.319.73-.655.507-1.086 1.323-1.086 2.276 0 1.108.534 1.889 1.222 2.361.628.421 1.368.575 2.142.575.55 0 1.168-.129 1.36-.197.091-.035.195-.068.298-.085M86.805 29.046c-.036-.079-.156-.102-.216-.06-.222.446-.455.747-.61.833-.19.096-.438.129-1.1.129-.757 0-.938-.094-1.041-.198-.137-.146-.163-.436-.163-.892v-1.213c0-.222.026-.23.285-.23h.498c.335 0 .542.008.662.043.172.042.23.17.266.326l.077.334c.043.053.19.053.224-.007 0-.19-.034-.516-.034-.826 0-.327.034-.662.034-.867-.034-.06-.18-.06-.224-.008l-.068.353c-.045.215-.103.266-.208.3-.102.034-.368.05-.73.05h-.497c-.259 0-.285 0-.285-.239v-1.717c0-.327 0-.344.259-.344h.618c.38 0 .655.008.834.052.447.11.525.412.652.815.044.053.183.036.217-.017-.034-.378-.087-.996-.139-1.143-.103.026-.61.026-1.159.026h-1.615c-.354 0-.645-.01-1.016-.026-.052.026-.07.182-.018.216l.137.017c.507.06.525.19.525 1.082v3.092c0 .902-.043 1.03-.534 1.073l-.283.025c-.05.052-.033.19.018.214.508-.017.799-.024 1.17-.024h.772c.766 0 1.531.007 2.304.024a7.44 7.44 0 0 0 .388-1.193M89.274 30.086c-.999 0-1.349-.842-1.48-1.281-.032-.05-.16-.033-.207.026.02.405.132 1.014.235 1.203.162.094.619.317 1.34.317 1.118 0 1.83-.644 1.83-1.589 0-.814-.53-1.312-1.072-1.648l-.688-.43c-.318-.195-.732-.557-.732-1.055 0-.395.18-.954 1.023-.954.827 0 1.059.559 1.17.971.042.052.18.025.216-.026 0-.36-.078-.842-.156-1.047-.068 0-.19-.017-.3-.052a3.343 3.343 0 0 0-.8-.112c-1.119 0-1.754.662-1.754 1.477 0 .705.498 1.194.93 1.478l.815.532c.628.403.706.823.706 1.202 0 .516-.352.988-1.076.988M93.825 30.086c-.998 0-1.35-.842-1.478-1.281-.035-.05-.163-.033-.21.026.02.405.13 1.014.235 1.203.163.094.62.317 1.34.317 1.118 0 1.832-.644 1.832-1.589 0-.814-.532-1.312-1.074-1.648l-.688-.43c-.318-.195-.732-.557-.732-1.055 0-.395.18-.954 1.024-.954.826 0 1.058.559 1.17.971.043.052.18.025.215-.026 0-.36-.079-.842-.155-1.047-.07 0-.19-.017-.3-.052a3.37 3.37 0 0 0-.801-.112c-1.117 0-1.753.662-1.753 1.477 0 .705.498 1.194.928 1.478l.815.532c.63.403.707.823.707 1.202 0 .516-.352.988-1.075.988M37.966 34.724l.215-.016c.051-.035.033-.19-.017-.215-.431.016-.723.025-1.067.025-.36 0-.653-.009-1.083-.025-.052.025-.068.18-.018.215l.214.016c.51.043.526.19.526 1.1v3.056c0 .91-.017 1.03-.526 1.093l-.214.024c-.05.052-.034.188.018.214.43-.016.722-.026 1.083-.026.344 0 .636.01 1.067.026.05-.026.068-.18.017-.214l-.215-.024c-.508-.062-.525-.182-.525-1.093v-3.056c0-.91.017-1.057.525-1.1M45.395 34.725l.12-.018c.052-.05.052-.171-.018-.214-.292.016-.515.025-.885.025-.327 0-.618-.009-1.014-.025-.069.025-.078.163-.017.214l.145.018c.345.042.483.093.534.171.163.258.171 1.374.171 1.777v1.837c0 .182 0 .318-.033.362h-.019c-.403-.413-.824-.893-1.418-1.555l-.833-.936c-.285-.317-1.298-1.452-1.47-1.888a2.917 2.917 0 0 1-.397.025c-.154 0-.61 0-.971-.025-.067.035-.067.163-.017.214l.147.018c.206.026.412.085.533.204.18.198.189.38.189.62v2.482c0 .413.008 1.459-.112 1.768-.043.095-.181.147-.379.174l-.231.024c-.053.052-.043.172.016.214.302-.016.533-.026.895-.026.318 0 .619.01 1.006.026.06-.042.067-.146.017-.214l-.267-.024c-.214-.019-.386-.071-.438-.164-.145-.258-.155-1.375-.155-1.778v-1.872c0-.259.01-.456.043-.558h.018c.18.188.764.892.997 1.158l1.994 2.267c.748.849.997 1.153 1.1 1.297.094 0 .147-.042.164-.094-.025-.224-.025-1.245-.025-1.504v-2.052c0-.394-.017-1.46.127-1.769.036-.067.207-.137.483-.18M48.64 34.724l.214-.016c.051-.035.035-.19-.017-.215-.43.016-.723.025-1.066.025-.361 0-.653-.009-1.084-.025-.051.025-.068.18-.016.215l.214.016c.508.043.525.19.525 1.1v3.056c0 .91-.017 1.03-.525 1.093l-.214.024c-.052.052-.035.188.016.214.43-.016.723-.026 1.084-.026.343 0 .636.01 1.066.026.052-.026.068-.18.017-.214l-.214-.024c-.508-.062-.526-.182-.526-1.093v-3.056c0-.91.018-1.057.526-1.1M55.165 34.278c-.128.223-.205.24-.67.24h-3.482c-.395 0-.679.01-.73-.266-.027-.026-.139-.016-.164 0a9.01 9.01 0 0 1-.327 1.28c.035.069.155.11.224.06.095-.215.18-.405.387-.592.215-.198.687-.215 1.056-.215h.474c.258 0 .258.01.258.275v3.838c0 .902-.043 1.03-.533 1.074l-.31.025c-.068.043-.051.188 0 .215.551-.016.851-.027 1.195-.027.345 0 .637.011 1.127.027.051-.027.068-.18.017-.215l-.276-.025c-.498-.044-.514-.172-.514-1.074v-3.82c0-.284-.01-.293.247-.293h.613c.472 0 .798.068.996.215.13.094.19.412.214.626.045.053.19.053.226-.016-.028-.26.032-.954.128-1.307-.019-.035-.113-.04-.156-.025M58.255 34.724l.215-.016c.051-.035.034-.19-.018-.215-.43.016-.722.025-1.066.025-.36 0-.652-.009-1.083-.025-.052.025-.069.18-.016.215l.214.016c.508.043.525.19.525 1.1v3.056c0 .91-.017 1.03-.525 1.093l-.214.024c-.053.052-.036.188.016.214.431-.016.723-.026 1.083-.026.344 0 .637.01 1.066.026.052-.026.07-.18.018-.214l-.215-.024c-.506-.062-.525-.182-.525-1.093v-3.056c0-.91.019-1.057.525-1.1M62.384 37.635h-1.058c-.24 0-.25-.01-.18-.205l.54-1.495a5.9 5.9 0 0 1 .207-.507h.017c.053.103.13.337.198.541l.464 1.4c.077.233.059.266-.188.266m.653 2.337l-.25.025c-.06.043-.05.181.017.215.25-.008.578-.026.99-.026.385 0 .687.009 1.04.026.042-.034.06-.172 0-.215l-.232-.025c-.372-.044-.48-.173-.731-.912l-1.178-3.45c-.13-.379-.268-.774-.38-1.153-.017-.058-.076-.076-.127-.076-.094.112-.242.266-.449.327.027.137-.026.299-.145.61l-.877 2.317c-.36.961-.603 1.52-.758 1.915-.118.308-.307.404-.513.422l-.285.025c-.052.043-.033.181.017.215.233-.008.542-.026.825-.026.405.009.671.009.896.026.077-.034.077-.172.017-.215l-.285-.025c-.205-.018-.248-.07-.248-.173 0-.094.06-.325.187-.714l.302-.9c.06-.18.11-.207.326-.207h1.299c.257 0 .292.027.353.215l.378 1.169c.07.205.11.36.11.453 0 .086-.12.139-.299.157M70.055 34.278c-.13.223-.208.24-.672.24h-3.48c-.396 0-.68.01-.733-.266-.025-.026-.137-.016-.162 0-.06.344-.188.892-.328 1.28.036.069.155.11.226.06.092-.215.178-.405.385-.592.216-.198.689-.215 1.058-.215h.473c.257 0 .257.01.257.275v3.838c0 .902-.043 1.03-.532 1.074l-.312.025c-.066.043-.05.188 0 .215.553-.016.853-.027 1.197-.027.344 0 .636.011 1.127.027.05-.027.068-.18.018-.215l-.277-.025c-.497-.044-.516-.172-.516-1.074v-3.82c0-.284-.008-.293.25-.293h.61c.472 0 .8.068.998.215.13.094.188.412.215.626.043.053.188.053.223-.016-.025-.26.035-.954.128-1.307-.016-.035-.11-.04-.153-.025M73.143 34.724l.216-.016c.051-.035.033-.19-.018-.215-.43.016-.72.025-1.067.025-.361 0-.652-.009-1.082-.025-.052.025-.07.18-.017.215l.213.016c.51.043.525.19.525 1.1v3.056c0 .91-.016 1.03-.525 1.093l-.213.024c-.052.052-.035.188.017.214.43-.016.72-.026 1.082-.026.346 0 .638.01 1.067.026.051-.026.07-.18.018-.214l-.216-.024c-.508-.062-.523-.182-.523-1.093v-3.056c0-.91.015-1.057.523-1.1M74.4 34.724c.37.043.497.224.697.704l1.513 3.727c.145.36.3.783.396 1.142a.33.33 0 0 0 .129.026.17.17 0 0 0 .094-.026c.145-.455.549-1.45.895-2.24L78.588 37c.387-.874.72-1.571.962-1.975.11-.18.24-.283.447-.3l.258-.016c.043-.043.043-.18-.017-.215-.284.016-.552.025-.834.025-.328 0-.654-.009-.896-.025-.058.035-.076.163-.016.215l.155.016c.301.035.387.102.387.164 0 .06-.008.153-.078.335-.144.369-.55 1.339-.8 1.923-.197.456-.558 1.34-.823 1.906a88.04 88.04 0 0 1-1.22-2.963c-.267-.651-.415-1.115-.432-1.2.01-.07.077-.122.406-.165l.129-.016c.058-.052.041-.18-.02-.215-.36.016-.662.025-1.04.025-.368 0-.644-.009-.895-.025-.067.044-.077.163-.016.215l.155.016zM82.037 40.185h.774c.765 0 1.53.01 2.305.027.112-.232.324-.893.387-1.194-.037-.078-.155-.103-.218-.06-.222.445-.454.747-.61.833-.187.094-.437.13-1.1.13-.755 0-.937-.097-1.04-.2-.137-.144-.164-.437-.164-.894v-1.21c0-.223.027-.23.286-.23h.498c.337 0 .542.007.661.043.173.042.232.171.267.324l.077.336c.044.052.19.052.225-.009 0-.188-.035-.515-.035-.821 0-.329.035-.663.035-.868-.035-.062-.181-.062-.225-.01l-.068.352c-.044.213-.103.265-.206.3-.105.034-.369.052-.731.052h-.498c-.26 0-.286 0-.286-.24v-1.719c0-.326 0-.342.26-.342h.62c.377 0 .652.008.832.052.448.112.524.41.655.815.041.051.18.034.214-.017-.034-.378-.086-.996-.137-1.142-.102.025-.611.025-1.161.025h-1.617c-.353 0-.645-.009-1.015-.025-.05.025-.067.18-.017.214l.138.018c.507.06.524.188.524 1.083v3.09c0 .9-.044 1.03-.533 1.074l-.282.026c-.052.051-.035.187.017.214.506-.017.798-.027 1.168-.027" fill="#1B4075"></path>
</g>
</svg>